<svg width="100%" height="100%" viewBox="0 0 57 55" fill="none" xmlns="http://www.w3.org/2000/svg">
    <g clip-path="url(#clip0_8_29)">
        <path d="M21.1276 48.8889C23.0471 48.8889 24.6031 47.3499 24.6031 45.4514C24.6031 43.5529 23.0471 42.0139 21.1276 42.0139C19.2081 42.0139 17.6521 43.5529 17.6521 45.4514C17.6521 47.3499 19.2081 48.8889 21.1276 48.8889Z" fill="white" />
        <path d="M42.2433 48.8889C44.1628 48.8889 45.7188 47.3499 45.7188 45.4514C45.7188 43.5529 44.1628 42.0139 42.2433 42.0139C40.3238 42.0139 38.7678 43.5529 38.7678 45.4514C38.7678 47.3499 40.3238 48.8889 42.2433 48.8889Z" fill="white" />
        <path d="M51.6349 8.20416C51.4912 8.02891 51.31 7.88732 51.1043 7.78958C50.8987 7.69184 50.6737 7.64038 50.4455 7.63889H18.2854L19.2895 10.6944H48.422L44.2977 29.0278H21.1276L14.0685 6.92083C13.9921 6.68625 13.8595 6.47343 13.682 6.30051C13.5045 6.12759 13.2873 5.99971 13.049 5.92777L6.71582 4.00277C6.52108 3.94359 6.31647 3.92292 6.11366 3.94194C5.91084 3.96097 5.71381 4.01932 5.53379 4.11366C5.17024 4.30419 4.89811 4.62976 4.77725 5.01875C4.6564 5.40773 4.69673 5.82827 4.88937 6.18784C5.08201 6.54742 5.41117 6.81658 5.80446 6.93611L11.3498 8.61666L18.4399 30.7694L15.9066 32.8167L15.7058 33.0153C15.0792 33.7295 14.724 34.6375 14.7015 35.5829C14.6789 36.5282 14.9904 37.4518 15.5822 38.1944C16.0033 38.7008 16.5382 39.1028 17.1444 39.368C17.7506 39.6333 18.4111 39.7546 19.0732 39.7222H44.8538C45.2635 39.7222 45.6564 39.5613 45.946 39.2747C46.2357 38.9882 46.3985 38.5996 46.3985 38.1944C46.3985 37.7892 46.2357 37.4007 45.946 37.1141C45.6564 36.8276 45.2635 36.6667 44.8538 36.6667H18.8261C18.6482 36.6607 18.4749 36.6094 18.3229 36.5178C18.1709 36.4262 18.0454 36.2974 17.9584 36.1438C17.8714 35.9902 17.826 35.817 17.8265 35.641C17.8269 35.465 17.8733 35.292 17.961 35.1389L21.6837 32.0833H45.5334C45.8905 32.092 46.2396 31.9779 46.5212 31.7607C46.8028 31.5434 46.9996 31.2363 47.0781 30.8917L51.9747 9.50277C52.0217 9.27501 52.0155 9.03965 51.9566 8.81461C51.8977 8.58957 51.7877 8.38079 51.6349 8.20416Z" fill="white" />
    </g>
    <defs>
        <clipPath id="clip0_8_29">
            <rect width="55.6082" height="55" fill="white" transform="translate(0.537125)" />
        </clipPath>
    </defs>
</svg>
    