<svg width="100%" height="100%" viewBox="0 0 57 55" fill="none" xmlns="http://www.w3.org/2000/svg">
    <g clip-path="url(#clip0_8_34)">
        <path d="M25.907 7.71527C29.2529 7.71225 32.5246 8.69083 35.3082 10.5272C38.0917 12.3636 40.2621 14.9753 41.5446 18.0319C42.8272 21.0885 43.1644 24.4526 42.5135 27.6988C41.8626 30.9449 40.2529 33.9272 37.888 36.2683C35.5231 38.6095 32.5093 40.2043 29.2279 40.851C25.9464 41.4978 22.5448 41.1674 19.4532 39.9016C16.3617 38.6359 13.7191 36.4917 11.8599 33.7403C10.0006 30.9888 9.00825 27.7538 9.00825 24.4444C9.02853 20.0164 10.815 15.7752 13.9793 12.6427C17.1436 9.51014 21.43 7.73938 25.907 7.71527ZM25.907 4.58333C21.9354 4.58333 18.053 5.74816 14.7507 7.93053C11.4484 10.1129 8.87464 13.2148 7.35478 16.8439C5.83491 20.4731 5.43725 24.4665 6.21207 28.3192C6.98689 32.1718 8.89939 35.7107 11.7077 38.4884C14.5161 41.266 18.0941 43.1576 21.9894 43.9239C25.8847 44.6903 29.9223 44.297 33.5915 42.7937C37.2608 41.2905 40.397 38.7448 42.6035 35.4787C44.81 32.2125 45.9877 28.3726 45.9877 24.4444C45.9877 19.1769 43.8721 14.1252 40.1062 10.4005C36.3403 6.67583 31.2327 4.58333 25.907 4.58333Z" fill="white" />
        <path d="M54.746 50.8597L43.3618 39.5236L41.1683 41.6778L52.5526 53.0139C52.6956 53.1563 52.8656 53.2695 53.0528 53.347C53.24 53.4245 53.4409 53.4647 53.6438 53.4654C53.8468 53.4661 54.0479 53.4273 54.2357 53.3511C54.4235 53.275 54.5943 53.163 54.7383 53.0215C54.8823 52.8801 54.9968 52.712 55.0751 52.5268C55.1534 52.3416 55.1941 52.1429 55.1948 51.9422C55.1955 51.7415 55.1563 51.5426 55.0793 51.3568C55.0023 51.1711 54.889 51.0022 54.746 50.8597Z" fill="white" />
    </g>
    <defs>
        <clipPath id="clip0_8_34">
            <rect width="55.6082" height="55" fill="white" transform="translate(0.682465)" />
        </clipPath>
    </defs>
</svg>
    