<svg width="100%" height="100%" viewBox="0 0 57 55" fill="none" xmlns="http://www.w3.org/2000/svg">
    <g clip-path="url(#clip0_8_25)">
        <path d="M28.4139 25.9722C30.5525 25.9722 32.643 25.345 34.4211 24.1699C36.1993 22.9948 37.5852 21.3245 38.4036 19.3704C39.2219 17.4162 39.4361 15.2659 39.0189 13.1914C38.6016 11.1169 37.5718 9.21131 36.0597 7.71566C34.5475 6.22002 32.6208 5.20147 30.5234 4.78882C28.4259 4.37618 26.2518 4.58796 24.2761 5.3974C22.3003 6.20684 20.6116 7.57757 19.4235 9.33626C18.2354 11.095 17.6012 13.1626 17.6012 15.2778C17.6012 18.1141 18.7404 20.8343 20.7682 22.8399C22.7959 24.8455 25.5462 25.9722 28.4139 25.9722ZM28.4139 7.63889C29.9415 7.63889 31.4347 8.0869 32.7048 8.92627C33.9749 9.76565 34.9648 10.9587 35.5494 12.3545C36.1339 13.7503 36.2869 15.2863 35.9889 16.7681C35.6909 18.2498 34.9553 19.611 33.8752 20.6793C32.795 21.7476 31.4189 22.4751 29.9207 22.7699C28.4225 23.0646 26.8696 22.9134 25.4583 22.3352C24.047 21.757 22.8408 20.7779 21.9922 19.5217C21.1435 18.2655 20.6905 16.7886 20.6905 15.2778C20.6905 13.2518 21.5043 11.3088 22.9527 9.87627C24.4011 8.4437 26.3656 7.63889 28.4139 7.63889Z" fill="white" />
        <path d="M47.676 37.2319C45.1988 34.6424 42.2137 32.5797 38.9031 31.17C35.5925 29.7604 32.026 29.0333 28.4216 29.0333C24.8173 29.0333 21.2508 29.7604 17.9402 31.17C14.6296 32.5797 11.6445 34.6424 9.16729 37.2319C8.63022 37.7993 8.33194 38.5478 8.33316 39.325V47.3611C8.33316 48.1715 8.65865 48.9487 9.23801 49.5217C9.81738 50.0947 10.6032 50.4167 11.4225 50.4167H45.4053C46.2247 50.4167 47.0104 50.0947 47.5898 49.5217C48.1692 48.9487 48.4947 48.1715 48.4947 47.3611V39.325C48.5001 38.5499 48.2074 37.8017 47.676 37.2319ZM45.4053 47.3611H11.4225V39.3097C13.6117 37.0298 16.247 35.2143 19.168 33.9736C22.0891 32.733 25.2349 32.0932 28.4139 32.0932C31.5929 32.0932 34.7387 32.733 37.6598 33.9736C40.5808 35.2143 43.2162 37.0298 45.4053 39.3097V47.3611Z" fill="white" />
    </g>
    <defs>
        <clipPath id="clip0_8_25">
            <rect width="55.6082" height="55" fill="white" transform="translate(0.609802)" />
        </clipPath>
    </defs>
</svg>